<svg xmlns="http://www.w3.org/2000/svg" viewBox="0 0 63.89 18.19"><path d="M35.39.17c0,.15-.69,0-.19,0a.61.61,0,0,1,.19,0" style="fill:#dd489d"/><path d="M36.77.23c0,.14-.78,0-.25,0h.25" style="fill:#dd489d"/><path d="M51.7.69h.1c0,.19-.36,0-.1,0" style="fill:#dd489d"/><path d="M47.34.82c0-.15.3,0,.45-.07-.07.16-.32,0-.45.07" style="fill:#dd489d"/><path d="M1.34,1c0-.14.21,0,.29-.06,0,.18-.23.15-.29.06" style="fill:#dd489d"/><path d="M48.27,1.16c-.1.15-.4,0-.59.06,0,0-.12-.1-.15-.06.15-.18.52,0,.74,0" style="fill:#dd489d"/><path d="M50.48,1.22h.1c0,.2-.37,0-.1,0" style="fill:#dd489d"/><path d="M2.07,1.42a1.91,1.91,0,0,0-.58.06c-.11-.27.27,0,.34-.13V1.29c.09,0,.28-.06.24.13" style="fill:#dd489d"/><path d="M54.06,1.48c-.08.12-.24.06-.4.06h-.39c.14-.3.52,0,.79-.06" style="fill:#dd489d"/><path d="M52.58,1.68c.05-.17.17,0,.29,0s.4-.06.49.07c-.24,0-.6.08-.78-.07" style="fill:#dd489d"/><path d="M48.32,2h.1c0,.18-.37,0-.1,0" style="fill:#dd489d"/><path d="M50.82,2.21H51c0,.18-.43,0-.15,0" style="fill:#dd489d"/><path d="M48.42,2.54c0-.11.27-.12.19.07-.09,0-.12,0-.19-.07" style="fill:#dd489d"/><path d="M57.14,3.34c0-.06.06,0,.1-.07s.12-.1.15-.06v.06a1.94,1.94,0,0,1,.83,0c.09,0,.1.06.05.07Z" style="fill:#dd489d"/><path d="M60.86,3.8c.07-.15.35,0,.49-.07s-.09,0-.15.07a.3.3,0,0,1-.34,0" style="fill:#dd489d"/><path d="M55.76,4.2c-.08.2-.24.11-.39.13s0,.09-.1.08,0-.08-.05-.08,0,.08-.1.08-.07-.07,0-.08-.15.13-.24.14a5.18,5.18,0,0,0-1.62.2c-.23-.07-.36-.28-.59-.34.12-.19.28-.12.49-.2s.89.06,1.37,0l.24-.07s0,.06.06.07a2.77,2.77,0,0,1,1,.07" style="fill:#dd489d"/><path d="M4.66,4.26c0,.1-.12,0-.19.07s-.18.17-.29.14c0-.22.16-.1.15-.27.16-.06.18.09.33.06" style="fill:#dd489d"/><path d="M3.39,4.4c0,.24-.14.29-.35.26,0-.27.24-.17.35-.26" style="fill:#dd489d"/><path d="M58.56,4.47h.24c0,.23-.25.23-.24,0" style="fill:#dd489d"/><path d="M58,5.05h.48c0,.38-.44.3-.48,0" style="fill:#dd489d"/><path d="M53.85,5.18c0,.07-.33.16-.39.08s.22-.1.29-.14.06.06.1.07" style="fill:#dd489d"/><path d="M55.47,5.65c0-.15.24,0,.35-.07,0,.26-.2.06-.35.07" style="fill:#dd489d"/><path d="M52.14,5.72c0-.12.3-.09.35,0s0,.08,0,.07c-.13.21-.19-.19-.39-.07" style="fill:#dd489d"/><path d="M52.68,6c.12,0,.23,0,.29.07s-.36.15-.29-.07" style="fill:#dd489d"/><path d="M55.71,6.17c-.18.24-.43.12-.63.08h-.19a1.48,1.48,0,0,0-.59-.08c0-.17.1-.17.19-.2s.19.1.29.14S54.94,6,55,6s.12.1.19.14.36,0,.5.07" style="fill:#dd489d"/><path d="M57.48,6.11c0,.24-.31.26-.53.2a2.62,2.62,0,0,0-.74-.07c0-.09.12,0,.19-.07A.17.17,0,0,0,56.5,6a3.22,3.22,0,0,0,1,.07" style="fill:#dd489d"/><path d="M57.73,6.05c.05.2-.11.13-.2.14s.09-.16.2-.14" style="fill:#dd489d"/><path d="M55.76,6.25c0-.06.07,0,.1-.07H56c0,.15-.19,0-.26.07" style="fill:#dd489d"/><path d="M56.55,6.51c0-.12.28-.12.2.07-.1,0-.14,0-.2-.07" style="fill:#dd489d"/><path d="M59,7c.15-.25.16.2,0,0" style="fill:#dd489d"/><path d="M.65,8.56a.14.14,0,0,1-.15.13c0-.14.08-.13.15-.13" style="fill:#dd489d"/><path d="M56.8,9.16c-.06.29-.52.21-.83.2-.09,0-.23.06-.24-.07s.18-.18.29-.2.48.14.78.07" style="fill:#dd489d"/><path d="M58.26,10.21c0,.12-.2.06-.29.07s-.53,0-.19-.07c.11,0,.31,0,.48,0" style="fill:#dd489d"/><path d="M57.33,10.74c0-.06.06-.05.1-.07h.1c0,.1-.13.06-.2.07" style="fill:#dd489d"/><path d="M54.94,10.81c0-.06.06-.05.1-.07h.1c0,.09-.14.06-.2.07" style="fill:#dd489d"/><path d="M55.38,10.81c.06-.2.17.07.29,0,0,.14-.26,0-.29,0" style="fill:#dd489d"/><path d="M56.26,10.94c0,.41-.35.05-.59.13,0-.24.39-.08.59-.13" style="fill:#dd489d"/><path d="M57.59,10.94c0,.14-.12.14-.25.13-.06-.22.15-.1.25-.13" style="fill:#dd489d"/><path d="M58.52,11.73c0,.18-.24-.05-.2.13-.38,0-.83.06-1.08,0-.09,0-.1-.06-.05-.07a4.93,4.93,0,0,1,1.33-.06" style="fill:#dd489d"/><path d="M60.47,12.79c0,.14-.3,0-.24.26h-.3c.13-.17-.08-.05,0-.26.25,0,.39-.14.59,0" style="fill:#dd489d"/><path d="M57.49,12.86h.09c0,.14-.07.12-.15.13s0-.07,0-.13" style="fill:#dd489d"/><path d="M56.8,13c0,.17-.27.13-.45.13.06-.17.26-.13.45-.13" style="fill:#dd489d"/><path d="M59.1,13.05c-.05.17-.26.13-.44.13.07-.24.25,0,.44-.13" style="fill:#dd489d"/><path d="M57.92,13.12c0,.27-.27.08-.39.13,0-.26.27-.08.39-.13" style="fill:#dd489d"/><path d="M61.05,13.19c0,.14-.14,0-.24.06s-.05.07-.05.06c-.17,0-.35,0-.54,0l-1.32.13h-.24c-.34.06-1,.07-1.42.13,0-.19.17-.11.24-.13a13.85,13.85,0,0,1,1.57-.13c.22,0,.43-.11.64-.13s.5,0,.74,0,.43-.16.62,0" style="fill:#dd489d"/><path d="M57.19,13.52c-.21.24-.72.09-1.08.13.06-.16.32-.18.48-.2a1.71,1.71,0,0,1,.6.07" style="fill:#dd489d"/><path d="M57,13.78s.16-.11.19-.06-.13.18-.19.06" style="fill:#dd489d"/><path d="M58.61,13.72c0,.19-.2.12-.35.13.05-.14.19-.15.35-.13" style="fill:#dd489d"/><rect x="55.38" y="13.91" width="0.1" height="0.13" style="fill:#dd489d"/><path d="M54.59,14c-.15.25-.16-.2,0,0" style="fill:#dd489d"/><path d="M36.27,14.38c-.07-.05.42-.16.24,0s-.09,0-.24,0" style="fill:#dd489d"/><path d="M51.94,14.44s0,.12,0,.13-.12-.09-.15-.06-.07.11-.1.06-.06,0-.24,0a.41.41,0,0,1,.54-.13" style="fill:#dd489d"/><path d="M53.27,14.71a.14.14,0,0,1,.15-.13c0,.13-.07.12-.15.13" style="fill:#dd489d"/><path d="M53.37,14.9c0-.2.1-.21.24-.2s0-.11,0-.13.06,0,.05.13a1,1,0,0,1,.59,0c0,.26-.28.19-.44.2s-.08.07-.16.06-.23-.09-.33-.06" style="fill:#dd489d"/><path d="M57.59,14.58c0,.15-.69,0-.19,0h.19" style="fill:#dd489d"/><path d="M58.61,14.64c0-.15.24,0,.34-.06,0,.14-.24,0-.34.06" style="fill:#dd489d"/><path d="M52.58,14.77c-.12,0-.22,0-.34,0s-.1.06-.16.06-.1-.06-.19-.06-.21.11-.29,0a.17.17,0,0,1,.21-.12.16.16,0,0,1,.08.06.64.64,0,0,1,.49-.06c.1,0,.25-.06.2.12" style="fill:#dd489d"/><rect x="54.59" y="14.64" width="0.1" height="0.13" style="fill:#dd489d"/><path d="M58.21,14.9c.11-.15.25,0,.35.06s.18,0,.19.07h-.19c-.11,0-.38.13-.35-.13" style="fill:#dd489d"/><path d="M60.27,15.24c-.06.18-.24.2-.44.2a.73.73,0,0,1-.34.2c-.16.06-.16-.1-.25-.13-.28,0-.67.07-.88-.07.13-.3.37-.06.54-.06a5.25,5.25,0,0,0,.79-.06c.21-.06.4-.21.58-.09" style="fill:#dd489d"/><path d="M57.19,15.24c.12,0,.23,0,.29.07s-.36.14-.29-.07" style="fill:#dd489d"/><path d="M56.11,15.3h.1c0,.19-.37,0-.1,0" style="fill:#dd489d"/><path d="M63.36,15.43c0-.08.09-.06.15-.06h.15c0,.14-.21,0-.3.06" style="fill:#dd489d"/><path d="M57.68,15.5c0,.06-.06.12,0,.13-.08.18-.15.1-.25,0s-.18.07-.29.06c0-.26.3-.08.34-.26a.25.25,0,0,0,.2.07" style="fill:#dd489d"/><path d="M58.31,15.63c-.07.19-.33.11-.53.13-.06-.24.14,0,.19-.13s.19,0,.34,0" style="fill:#dd489d"/><path d="M61.69,15.76c0,.34-.34.15-.53.2,0-.23.19-.11.29-.13s.18-.13.24-.07" style="fill:#dd489d"/><path d="M34.21,16.36A.27.27,0,0,1,34,16.3c0-.2.28-.18.24.06" style="fill:#dd489d"/><path d="M39.94,16.36c.15-.05.14.11.29.06,0,.11-.35.15-.29-.06" style="fill:#dd489d"/><path d="M55.38,16.49c0,.17-.16.13-.29.13-.05-.24.19-.09.29-.13" style="fill:#dd489d"/><path d="M54.94,16.69c-.06.26-.43.08-.64.13,0-.09.12-.05.19-.06a.77.77,0,0,1,.45-.07" style="fill:#dd489d"/><path d="M54.06,16.75c-.08.2-.34.11-.54.13s-.1-.06-.05-.06.39,0,.59-.07" style="fill:#dd489d"/><path d="M30.83,16.89c0-.16.27,0,.39-.07,0,.15-.27,0-.39.07" style="fill:#dd489d"/><path d="M31.86,16.89c0,.09-.12.05-.2.06,0-.15.14-.15.2-.06" style="fill:#dd489d"/><path d="M36.42,16.89c0,.15-.69,0-.19,0h.19" style="fill:#dd489d"/><path d="M51.65,16.89c.09,0,.1.08.19.06s-.26.12-.19-.06" style="fill:#dd489d"/><path d="M40.28,17.09c-.07.12-.23.06-.39.06h-.4c0-.06,0-.11.1-.13s0,.1,0,.06A.13.13,0,0,1,39.8,17s.05.07.1.06,0-.06.05-.06h.19c0,.08.09.06.14.07" style="fill:#dd489d"/><path d="M43,17.09c-.12.21-.39.12-.63.13s-.53,0-.74,0-.19-.09-.3-.13a1.29,1.29,0,0,1-.48.06c0-.21.19-.12.24-.13h.35l.24.06c.44,0,.94,0,1.32,0" style="fill:#dd489d"/><path d="M48.12,17.09c-.11.21-.23-.18,0,0" style="fill:#dd489d"/><path d="M30.88,17.15c0,.24-.19.19-.35.2s-.39,0-.39-.13.23-.14.39-.13.25.12.35.06" style="fill:#dd489d"/><path d="M48.41,17.15c0-.08.09-.06.16-.06h.15c0,.14-.21,0-.3.06" style="fill:#dd489d"/><path d="M40.92,17.35c0-.15.24,0,.34-.06,0,.22-.23.09-.34.06" style="fill:#dd489d"/><path d="M44.1,17.35c0,.24-.35.09-.53.13s-.09,0-.1-.06,0-.12.05-.13.47-.07.59.06" style="fill:#dd489d"/><path d="M46.17,17.35c0-.11.32-.13.24.06a.22.22,0,0,1-.24-.06" style="fill:#dd489d"/><path d="M32.69,17.41a.31.31,0,0,1-.41.15.05.05,0,0,1,0,0c.09-.12.26-.13.45-.13" style="fill:#dd489d"/><path d="M43.12,17.88c.16-.25.18.2,0,0" style="fill:#dd489d"/><path d="M44.55,17s0,.08.05.06h.48c.19,0,.35.06.45-.06a1.64,1.64,0,0,0-1,0M46,17c-.08.1-.37-.13-.39.06,0,0,.05.06.05.06s0-.06,0-.06c.19,0,.15,0,.25,0s.32.11.39-.06c-.14,0-.26-.11-.34,0m-20,.19a.85.85,0,0,0,.79,0c0,.2.1.21.24.2s.1-.3.25-.34a.19.19,0,0,0,.19-.13c-.38,0-.83-.06-1.08.13-.06,0-.09-.09-.19-.06.05-.16-.29,0-.1,0s-.07.13-.1.2m-.33-.27c-.08.12-.25.06-.39.07h-.49c-.05,0-.12,0-.05.06a3.57,3.57,0,0,1,1,.07c0-.1.12-.07.19-.07.05-.22-.15-.1-.24-.13m2.69-.26v.06c-.07.09-.61-.11-.39.06.12,0,.31,0,.5,0s.48,0,.34-.06c-.14.08-.28-.06-.44-.06m-1.38.13c0-.2-.12-.12-.19-.13a4,4,0,0,0-.49,0s-.06.07-.05.06-.22-.2-.24,0a2.66,2.66,0,0,0,1,.07m2.2-.46h-.1c-.26,0,.11.19.1,0m25.09-.06c.56,0,0-.2-.15,0,.09,0,.13.1.15,0M55,16.1c-.34,0,0,.07.19.06s.24.06.29-.06c-.17,0-.37,0-.48,0M50.77,16h-.1c-.26,0,.11.2.1,0m.79-.26c.1,0,.34.11.29-.13-.09.06-.25,0-.29.13m-.25-.33c0-.06-.14.05-.15.06s.19,0,.15-.06m-.73,0h-.1c-.26,0,.11.19.1,0m-5.39,0c-.12,0-.35-.08-.39.06s.32,0,.39-.06M52,15.37c-.14,0-.4-.08-.45.06s.48.19.45-.06m-3,.06c0,.15.3,0,.45.06s.06-.16,0-.06Zm-5.73.33c-.12,0-.28-.06-.4-.06s-.15.06-.24.06-.06-.06-.1-.06-.07.07-.15.06-.06,0-.1-.06a6.52,6.52,0,0,0-.88-.07s0-.06,0-.06-.05.06-.05.06a1.59,1.59,0,0,0-.3-.06c-.05,0-.06,0-.1.06h-.19c-.12,0-.25-.06-.39-.06s-.3.06-.45.06-.15-.06-.19-.06-.16.06-.24.06a5.82,5.82,0,0,1-1.18,0,.17.17,0,0,0-.1,0L38,15.57c0,.06,0,0-.15.06-.3,0-.46-.12-.69-.13s-.42.06-.63.06-.3-.05-.45-.06a12.34,12.34,0,0,1-2.1-.13.4.4,0,0,1-.29.2c-.07,0-.18,0-.19.06.43.07.87,0,1.32.07s.62.11.93.13c1.07.06,2.37,0,3.29.06q.66,0,1.32.06c.13,0,.22.11.35.13s.28,0,.44,0a3.8,3.8,0,0,0,.4.06A4,4,0,0,0,42.89,16c.12,0,.27.1.24-.13.28,0,.4-.1.59-.13s.18,0,.19-.06a2.5,2.5,0,0,0-.67.07m11.51-.46H54.6s-.1,0-.1.06.26.08.26-.06m-.4,0c-.08,0-.28-.08-.29.06a.16.16,0,0,0,.23,0,.18.18,0,0,0,.06-.09M.8,15.57c.24-.1.18.19.34.2a2.9,2.9,0,0,1,1.18-.33c0-.19.23.05.19-.13-.27,0-.51,0-.74,0s-.21.12-.29.13-.1-.06-.19-.06-.23.08-.4,0c0-.09-.08-.08-.14-.07a.47.47,0,0,0,.05.26m52.71-.28s0-.08,0,0-.08,0-.1,0-.35,0-.45.2c.2.06.36-.05.54-.06s.39.07.49-.06c-.12-.08-.3,0-.43-.08m-1.22.13a.27.27,0,0,0,.24-.2c-.12,0-.16.13-.24.2m-7.69-.31c-.42,0-.79,0-1.17,0l-.25.06c-.06,0-.07-.07-.15-.06s-.07.06-.05.06-.14-.08-.24-.06-.06.05-.1.06h-.15l-.3.06c-.17,0-.13-.08-.29-.06s-.07.06,0,.06a.7.7,0,0,0-.19-.06c-.43-.05-.82.05-1.23,0-.09,0-.15-.06-.24-.06-.33,0-.69,0-1,0a8,8,0,0,1-1,0c-.13,0-.1.21-.25.2,0-.12-.23-.12-.19,0a14,14,0,0,0,3,0c0,.09-.1.06-.1.13.6,0,1.23.06,1.71,0a0,0,0,0,0,0,0s0,0,0,0a.21.21,0,0,1,.1-.14h.4c.12,0,.35-.08.39.07s-.13,0-.15.13c.21.1.34-.15.54-.2s.24,0,.34,0,.36-.12.54-.06c0,0,.07.07.05.06s.21-.07.29-.06.18.07.29.06a.34.34,0,0,0,.3-.13,1.87,1.87,0,0,0-.88,0m-7,.13s0-.08-.05-.06a20.29,20.29,0,0,0-2.2-.07c-.16,0-.36-.2-.45.07.91,0,1.76.1,2.7.06M34.36,15c-.64,0,.26.15.29,0h-.29m10.24-.53c-.13,0-.38-.08-.45.07.14-.05.4.08.45-.07m-3,.13a.21.21,0,0,0,.29.09l0,0v-.13s-.06-.05-.1-.07c0,.19-.26,0-.24.14M47,14.58c0-.23-.36-.17-.39-.07s.25.06.39.07m-1.57-.15s0,.07,0,.07-.32,0-.15.13c0-.12.16-.06.24-.06h.29c.2,0,.47.06.54-.08a2.54,2.54,0,0,0-.87-.06m3.33-.13s0-.09,0,0h-.1l-.45.07-.53.06c-.16,0-.35-.07-.45.14a5,5,0,0,0,1.22-.08c.09,0,0,.18.16.14s.32-.18.48-.07c0-.18.18-.15.24-.26h-.52m-5.34-.13h-.15c-.06,0-.15,0-.16.06s.3.09.3-.06M37,13.91h-.15s-.1,0-.1.06.26.08.25-.06m2.6.13a.06.06,0,0,1,.07-.06h0c0-.05,0-.13,0-.13a.19.19,0,0,0,.19-.06h.16s.1,0,.1-.07h-.29c-.26.14-.7,0-1,.07,0,0,0-.08,0-.07,0,.19-.24-.06-.19.13,0,0,.12,0,.1.06s-.33.06-.44.06c.05,0-.32-.18-.25,0,.08-.05.16,0,.25.06s.24-.07.29.06-.08.06-.15.07a1.39,1.39,0,0,1-.64.06,1.09,1.09,0,0,0-.44,0,2.61,2.61,0,0,1-.69-.06c-.13,0-.3,0-.45,0s-.07-.07-.15-.07c-.3,0-.61,0-.93,0,0,.19-.23-.05-.19.14a5.82,5.82,0,0,0,.93.26,3.24,3.24,0,0,0,.88,0c.09,0,.1-.06.15-.13v.2c.17,0,.39-.16.64-.2a4.82,4.82,0,0,1,.93,0c.06,0,.28-.08.24.13h-.59s-.12,0,0,.07c.71,0,1.29.12,2,.06.09,0,0-.11,0-.13.27,0,.32,0,.39-.13,0,.05-.14,0-.15-.07s.12-.08.1-.13c-.19,0-.26-.07-.29.06,0,0,.16,0,.05.06h-.3s-.07-.06,0-.06-.19.08-.29.06-.19-.11-.29-.13-.43.12-.54-.13l.83,0ZM1.33,13.65s0,.11,0,.13l-.1.06s-.05-.11-.1-.06S1.1,14,1,14c.09,0,0,.15,0,.2h.19c0-.12-.05-.14-.05-.26s.45,0,.4-.33c-.06,0-.18-.05-.24,0m34,0c.07.12.28,0,.4.06a8.47,8.47,0,0,0,.88.07c.21,0,.44.06.53-.07-.15,0-.32-.15-.44,0,0-.14,0-.21-.15-.2a1.31,1.31,0,0,1-.83,0,3.51,3.51,0,0,0-.79-.06c-.15,0-.37,0-.4.06.25.17.7,0,.8.14m19.85-.26c-.05.2.11.12.19.13v-.2a.23.23,0,0,0-.19.07m-10.88-.07c-.5,0,.2.15.2,0h-.2m3.28,0c-.3.07.34.08.35.06s0-.13-.06-.13v.07a.71.71,0,0,0-.29,0m-1,0c0,.22.22.14.34.13s.08,0,.16-.06.32,0,.34-.13a5.93,5.93,0,0,1-.84.06m-3.09-.06c-.18.31.29.09,0,0m-7.1,0h-.16s-.1,0-.1.07.27.07.26-.07m5.58-.07h-.15s-.1,0-.1.06.26.08.25-.06m-4.6.2c.18,0,.59.23.69.06s.06.07,0,.06.2,0,.19.2c-.07,0-.18,0-.19.07.15,0,.42.08.48-.07s-.12-.05-.15-.13h.15c.2,0,.14,0,.25,0s.33-.07.39-.06.09.08.19.06a1.14,1.14,0,0,1,.3-.06c.1,0,.11.05.19.06a1.62,1.62,0,0,0,.44,0,.9.9,0,0,1,.4,0c.14,0,.25,0,.34,0s.06.06,0,.06.17-.07.25-.06.09.07.19.06.16-.09.24-.06h.19s0-.08,0-.06h-.6c.08-.24-.16,0-.15-.2a13.71,13.71,0,0,1-1.57,0c-.07,0,0,.11-.15.13a1.91,1.91,0,0,1-.48-.06c-.23,0-.3,0-.35-.06s-.15,0-.19,0,0-.2-.1-.14h-.5c-.19,0-.4-.06-.49.07.34,0,0,0,0,.13m9,0c-.07-.16-.34,0-.48-.06s-.24,0-.4-.08-.29-.23-.39-.06a.46.46,0,0,1,0,.2c.35.09.86-.08,1.33,0m-9.12-.26c-.13,0-.39-.08-.44.07.14,0,.39.07.44-.07m10,0c.16,0,.32.06.39-.06h-.39c-.17,0-.33-.06-.4.06h.4m1.42,0c0-.1-.12-.06-.19-.06-.23,0-.46,0-.54-.13s-.15.11-.15.13.53-.05.59.2c0,0-.1,0-.1.07.19-.05.38,0,.53-.07V13.2s.09,0,.1,0,0-.1.1-.13.15,0,.16-.07c-.2-.17-.35,0-.5.12m-1.47-.2H47s-.1,0-.1.07.25.07.25-.07m-.39,0h-.1c-.26,0,.11.19.1,0m-.88.07s0-.08-.1-.07V13c0,.06-.16,0-.15.13h.58c0-.32-.21-.15-.33-.13m4.5-.13c-.07,0-.09.13-.19.13s0-.06,0-.07-.11,0-.16-.07c0,.2-.35.06-.34.33a2.32,2.32,0,0,0,.83-.07c.08,0,.21.07.24-.06a.45.45,0,0,0-.33-.19m-50,.06A.18.18,0,0,1,.56,13a2,2,0,0,1,.1-.26c-.16,0-.21.08-.25.19m53-.27h-.15s-.1,0-.1.08.26.07.25-.08m-51.93.27a.75.75,0,0,0,.58-.26c-.19.08-.57,0-.58.26m48.8-.39h-.1c-.28,0,.11.18.1,0m2.2-.07c-.61,0,.2.15.24,0h-.24m-1.82,0s-.1,0-.1.07a2.22,2.22,0,0,0,.63,0c.07,0,.19,0,.2-.07Zm-5-.06c0,.15-.15.07-.16.2.3,0,.56,0,.69-.2Zm-.44.13c-.08-.12-.25-.06-.39-.07a2.31,2.31,0,0,1-.74-.08c0,.14-.18.07-.19.2.5.06.83-.1,1.32-.06m8.86-.33c0,.05,0,.13-.05.13-.12-.16-.31,0-.39,0l-.35.07c-.07,0-.18,0-.19.07s.25,0,.45,0,.53,0,.73,0,.07.08.16.07.08-.07.1-.13-.29.08-.3-.07.1,0,.1-.07a.28.28,0,0,0-.26-.07m0-.32v.07c-.09.12-.5-.19-.45.13a1.39,1.39,0,0,0,.54-.07c.12,0,.29.06.39-.07a.62.62,0,0,0-.48-.07m.24-1c-.1,0-.32-.08-.34.08s.33,0,.34-.08m-5.63-.12c-.15,0-.43-.08-.49.07.15-.05.42.08.49-.07m-4.12,0c-.63,0,.27.16.3,0h-.3m2.5.06h.4c.16,0,.32.07.39-.07-.29,0-.68-.08-.83,0s0,.09,0,.07m1.86-.13s0,0,0,.07c.34.16.76-.14,1-.07.06,0,.13,0,.06-.07a7.27,7.27,0,0,1-1,.07M1.58,10.34s0,.06-.05.07-.1-.08-.15-.13-.12.12-.15.13-.17,0-.24,0-.14.23,0,.27.43-.11.48,0c-.25.16-.56.25-.82.39,0,.26.21.2.19.47.18,0,.27-.17.44-.2s.3,0,.45,0,.13-.1.19-.14.25,0,.34-.13a.53.53,0,0,0-.39,0v.07s-.08,0-.1,0,0,.07,0,.08-.36,0-.39-.08A.47.47,0,0,0,1.62,11c.11-.06.2-.08.29-.13s.13-.1.19-.13.25,0,.35-.07.28-.07.29-.13a1.33,1.33,0,0,0-.74,0c0-.1-.15-.06-.1-.26-.13-.06-.27.06-.32.06M57.63,8.69h.48c.08,0,.12-.07,0-.07s-.33-.07-.54-.07h-.1c0,.13.07.16.16.14m-.49,0c.51-.16-.32-.07,0,0m-1.08-.13v.07c-.07.09-.61-.11-.39.07.26-.06.72.15.82-.13-.12,0-.27-.07-.43,0M1.49,8.3c.14,0,.27,0,.24-.2a.25.25,0,0,0-.24.2M56,8c.13,0,.27,0,.34.13.19-.09.46-.07.54-.2h-.49c-.19,0-.4-.06-.48.07ZM1.28,7.9c.19,0,.23.08.3-.14-.14,0-.25,0-.3.14m47.44-.4c-.3,0,0,.07.15.07s.24.06.29-.07h-.44M1.39,7.37c-.1.06-.27.13-.3.26.29.06.36-.18.5-.33-.07-.1-.13,0-.2.07M43.81,7h-.1c-.26,0,.11.18.1,0m8.87-.2c.16,0,.22,0,.34-.07s.37.16.45,0c-.25,0-.64-.2-.79.07m-2.5-.06c.08,0,.2.06.24-.08h-1s-.1,0-.1.08c.29,0,.68,0,.89,0m-3.72-.14h-.15s-.1,0-.1.07.26.07.25-.07m-1.86.06c.2,0,.45,0,.48-.07h-.73c-.22.08.12.07.25.07m-42.73,0a.2.2,0,0,1-.1.2c-.14.1-.38.06-.39.33.11,0,.18-.1.34-.07a.43.43,0,0,1,.15-.2c.2,0,.37-.19.54-.26s.25,0,.34-.13c-.3,0-.62.23-.88.13M49,6.38h-.15c-.06,0-.15,0-.16.07s.3.08.3-.07M50.47,6h-.15s-.1,0-.1.07.26.07.25-.07m-.74,0h-.1c-.26,0,.11.18.1,0M51,6.05c.2-.07.41.23.48-.07-.09-.09-.47-.15-.48.07M48.8,6c.1,0,.27.06.35-.07H47.77c-.06,0-.14,0-.15.07.4,0,.87,0,1.19,0m-.4-.52c-.1,0-.32-.08-.34.07.11,0,.32.07.34-.07m-1.95-.13c.13,0,.57.23.45-.07.1-.14-.1-.08-.16-.08v.08s-.06-.07,0-.08-.07.08-.15.08-.06-.06-.1-.08a1.93,1.93,0,0,0-.48,0c-.12,0-.28-.06-.35.08.18.12.55.06.84.07m-2.1-.73c-.13,0-.38-.08-.44.07.13,0,.38.07.44-.07m1.86-.07c-.28,0-.95-.08-1,.07,0-.09.31.09.24.07a.53.53,0,0,0,.35-.07s.06.06.05.07.22-.09.34-.07a2.09,2.09,0,0,0,.35.13c.17,0,.46.1.48-.13a3.88,3.88,0,0,1-.83-.07m-2-.27h-.1s-.1,0-.1.08.18,0,.2-.08m-.34,0c-.16,0-.46-.08-.54.08.16-.06.46.08.54-.08m7.83-.72h-.1c-.26,0,.11.19.1,0m-48-.26c-.1.19-.4.11-.48.33.25,0,.42-.17.74-.13,0-.15.21-.06.24-.2Zm41.84-.53c-.61,0,.2.15.24,0h-.24M41.81,1.62a4,4,0,0,0-.49,0c-.16,0-.42-.07-.44.14a5.94,5.94,0,0,0,1,.06c0-.09.19-.17.05-.2s-.07,0-.15,0m3.38-.13c-.5,0,.19.15.19,0a.61.61,0,0,0-.19,0M37.49.57c-.5,0,.19.15.19,0h-.19M7.31.56h-.1c-.26,0,.11.18.1,0M36.51.49V.56c0,.06-.2-.06-.19.07.16,0,.45.08.54-.07a.84.84,0,0,0-.35-.07m8.82.67c0,.09.15.09.24.06a.68.68,0,0,1,.4,0c.07,0,0-.08,0-.2.2,0,.3-.11.53-.06,0,.21-.13.09-.24.06s-.1,0-.1.13a0,0,0,1,1,0,.06c.08.12.23.07.34.06a2.14,2.14,0,0,1,.35-.06c.1,0,.18.05.29.06a10.26,10.26,0,0,1,1.57.06.21.21,0,0,0-.19-.13c.2-.31.6,0,.93-.06,0,.09-.12.06-.19.06s0,.11-.06.06-.19,0-.39,0c.06.13.23.06.29.06.25,0,.58,0,.88,0a2.7,2.7,0,0,1,.4.14c.15,0,.29,0,.44.06A7.11,7.11,0,0,0,52,1.65c.09.05,0,.07-.1.06s-.14,0-.2,0-.13.11-.24.13c-.4.07-1-.12-1.32.06,0,0,0,.05-.06.07s-.07,0-.1,0-.08-.09-.15-.13-.1,0-.15,0-.05-.05-.1-.06a4.82,4.82,0,0,0-.93,0c-.29,0-.65,0-.93,0a7.07,7.07,0,0,1-1.72,0,9.77,9.77,0,0,0-1.08-.06.38.38,0,0,1-.15,0c-.09,0,0,0-.25,0a4.45,4.45,0,0,1-.73,0A1.52,1.52,0,0,0,43,1.66s-.05.06-.1.06-.21-.06-.35-.06-.22,0-.34,0c0,.16.22,0,.15.2a2.3,2.3,0,0,1,.74-.06c0,.06-.18.1-.19.06,0,.13,1,.08,1.27.06a3.51,3.51,0,0,1,.79-.06c.25,0,.62,0,1,.06A1,1,0,0,1,46.2,2c.27,0,.6,0,.88,0,.09,0,.15.06.24.06s.34,0,.48,0,.66,0,1,.06h.16s.05.06.1.06.17,0,.29-.06a2.9,2.9,0,0,1,.93.06c-.08.13-.2.06-.29.06a14.23,14.23,0,0,1-2.26.06c-.88-.1-2.14-.06-3.18-.06.18.22.42.11.63.13a5.38,5.38,0,0,0,.69.07s.08.07.15.06,0-.06,0-.06.1,0,.16.06.07,0,.1,0q.39,0,.78.06a1.66,1.66,0,0,0,.54.06l.24-.06a1,1,0,0,1,.25.06c.32,0,.64,0,1,0,0,.21-.26.12-.35.13a11.42,11.42,0,0,1-1.17,0c-.08,0-.08-.05-.15-.07s0,.07,0,.07,0-.06-.05-.07c-.36,0-.78,0-1.18,0,0,.14.07.12.16.13.74.1,1.5,0,2.34.06a1.05,1.05,0,0,0,.24.06,8.18,8.18,0,0,1,1,0c.09,0,.16.12.24.13.27,0,.54,0,.83,0,.08,0,.15.05.24.06.25,0,.55,0,.79,0s.15.06.24.07a3.48,3.48,0,0,1,.79,0c.08,0,.05.13.19.14s.4-.13.69-.08c.08,0,.1.07.19.08s.39-.12.54,0c0,.2-.2.11-.29.13-.46.09-1.19,0-1.81.07-.09,0-.17.06-.25.07a5.21,5.21,0,0,0-.79,0c-.3.05-.51.32-.78.26-.06-.2.11-.12.19-.13,0-.18-.18-.08-.35-.13s-.08-.11-.15-.13c-.3-.08-.68,0-1-.07,0,.18.23-.05.19.13h.24c0,.09-.12,0-.19.07a1,1,0,0,0-.44.2c.07.17.23.07.34.07H50a1.09,1.09,0,0,1,.24.07,3.1,3.1,0,0,1,1.17.2c0,.12-.28.06-.44.07h-.45l-.29-.07-.34.07a5,5,0,0,1-1.09,0c-.1,0-.2-.07-.29-.07l-.24.07c-.3,0-.61,0-.88,0-.08,0-.16.06-.25.07a2.66,2.66,0,0,1-.39-.07c-.24,0-.5,0-.74,0l-.24-.07a8.6,8.6,0,0,0-1.52.07c0,.12.29.06.45.07.4,0,.91,0,1.37,0l1,.13a7.93,7.93,0,0,1,1.62.08c-.11.13-.25.06-.39.07h-.19s0,.08-.05.07,0-.07-.06-.07a1.64,1.64,0,0,0-.73.07c0,.16.26.08.34.2s.25-.07.34-.07a6.59,6.59,0,0,0,1,.07c.1,0,.2-.07.29-.07s.26.12.39.13.57-.09.83-.07,0-.19.15-.2c.4-.05.64.11,1,.07.07,0,0-.12-.06-.13s0-.06,0-.13.22-.06.25,0a.56.56,0,0,0,.24.13c.28,0,.58-.08.79,0,0,.28-.29.17-.49.2s.1.22,0,.2-.18.17-.19,0A.23.23,0,0,0,52,4.88a1,1,0,0,0-.29.07s-.06.07-.05.07-.16-.12-.3,0-.13,0-.29.07-.16.12-.24.13a1.36,1.36,0,0,1-.35-.07,1.4,1.4,0,0,0-.29,0s0,.11,0,.07-.15,0-.29,0a5.82,5.82,0,0,0-1.18,0s-.05.07-.1.07-.19-.06-.29-.07a2.91,2.91,0,0,0-.59,0s-.2-.06-.24.07.22.06.34.07a4.66,4.66,0,0,1,1.18,0c.08,0,0,.11.19.13.52.07,1,0,1.52.07.09,0,.11.1.19.13.36.12.78-.06,1.13.08a.21.21,0,0,1-.19.13c-.19,0,.19.1,0,.13s.37,0,.44.13,0,.12-.05.13-.13-.15-.24,0-.2-.07-.29-.07-.2.07-.3.07a3.22,3.22,0,0,0-1-.07s-.05.07-.1.07-.23-.07-.34-.07-.29.11-.45.07c.1.24.3.07.45.07a13.67,13.67,0,0,0,1.81,0,1.41,1.41,0,0,1,.29,0c.17,0,.5,0,.79.07a1.63,1.63,0,0,0,.54,0,7,7,0,0,1,.79.07c.1,0,.19-.06.29-.07a5.83,5.83,0,0,1,1.32,0,.31.31,0,0,1,.25.13c.23,0,.32-.14.44.07s-.16.13-.29.13,0,.2-.1.2-.14,0-.15.08c-.22,0-.44,0-.64,0A3.17,3.17,0,0,0,54.5,7c-.14,0-.22,0-.45.07H54s-.06.07-.05.07-.13-.12-.29-.07,0,0-.19,0h-.19a1.54,1.54,0,0,0-.74,0c-.08,0,0,.12-.05.13a2,2,0,0,1-.59.07c.19.28.61.2,1,.2a3.56,3.56,0,0,1,1.08.07c0,.14-.07.12-.15.13.09.12.24.06.35.07.28,0,.7,0,1,0,.07,0,.17.06.24.07a.61.61,0,0,0,.24-.07s0,.1.05.07.22,0,.4,0a7.62,7.62,0,0,1,1.17,0c0,.15-.07.12-.15.13.12.18.25,0,.44.08s.1.1.25.07c0,0,0-.11,0-.07s.07.11.1.07,0,0,.1,0,.45-.1.44.13a8.3,8.3,0,0,0-1.41,0,3.23,3.23,0,0,0-.69.13c.07.19.19,0,.29,0s.16.06.25.07.58.08.63,0,0,0,.05,0h1c.11,0,.07-.12.15-.13s0,.05,0,.2a1.81,1.81,0,0,0,.69-.07c.1,0,.09,0,.15-.07s.24.06.29.07.24-.12.45-.07c0,0,.05.06.1.07s.08-.07.15-.07.08.07.15.07,0-.06,0-.07h.24s0,.08.06.07,0-.06.05-.07h.15s.27-.08.24.13c-1.17.08-2.26.08-3.23.13.14.21.37.12.58.13s.45,0,.64,0,.18.07.24.07.14,0,.25-.07h.29A3.81,3.81,0,0,1,61,8.65a3.08,3.08,0,0,0,.68.07,8.26,8.26,0,0,1,1.57-.07c.1,0,.12,0,.19.07s.47-.06.49.26a3.58,3.58,0,0,0-1-.07l-.25-.07a11.41,11.41,0,0,0-1.17,0,15.65,15.65,0,0,0-1.81.07c-.08,0-.15.06-.24.07a3.84,3.84,0,0,0-.83,0s-.05.07-.1.07S58.21,9,58.06,9s-.32.13-.53.07c0,0-.05-.06-.1-.07s-.08,0-.15.07-.13,0-.2,0,0-.07,0-.07S57,9,57,9.05s-.09,0-.1,0-.09,0-.24,0a4.31,4.31,0,0,0-.88,0c-.07,0-.17.06-.24.07-.23,0-.48,0-.69,0s-.47,0-.74.08c.08.19.51-.07.59.13s-.27.12-.45.13c-.34,0-.7,0-1,.07.1.12.29.06.49.07h.53a2,2,0,0,1,1.12.08c-.1.15-.26.12-.39.13s-.06-.08-.1-.07,0,.06-.06.07H54.6c-.17,0-.12,0-.24,0s-.33,0-.54,0c.1.13.33.06.54.07a1.62,1.62,0,0,1,.44,0c.13,0,.12,0,.35,0a1.55,1.55,0,0,1,.74.07c0,.08-.09.05-.16.07s-.7,0-1.08.07c-.11,0-.19.11-.29.13s-.48,0-.69.07c.1.12.34.06.54.07h.58a1,1,0,0,0,.25-.07,6.22,6.22,0,0,1,1.22,0s0,.08.05.07,0-.11,0-.07.18.12.25.2c.17-.1.22,0,.39-.07-.11.24-.37.12-.64.13s-.46,0-.68,0-.14.06-.2.07a.17.17,0,0,1-.1,0s-.12-.11-.15-.07a.18.18,0,0,1-.19.07s0-.07-.1-.07-.22.07-.34.07a1.36,1.36,0,0,1-.35-.07,1.72,1.72,0,0,0-.64,0,2,2,0,0,1-.73.07c-.11,0-.2-.07-.3-.07a.73.73,0,0,0-.19.07c-.07,0-.19,0-.19.08a1.21,1.21,0,0,0-.79-.14c-.07,0,0,.22-.24.14.11.2.3.07.44.07a4.22,4.22,0,0,1,1.23,0c.08,0,0,.12.19.13a1.28,1.28,0,0,0,.34-.07,1.76,1.76,0,0,1,.79,0c.1,0,.35,0,.4.13s.62,0,.88.07c.09.24-.15.05-.2.13s-1.06,0-1.41.07c-.18.08-.3.27-.59.2-.11,0-.07.12-.15.13s-.36,0-.54,0l-.24.07c-.16,0-.3-.07-.45-.07s-.15,0-.15.13c-.18-.1-.4.06-.69,0-.13-.14.37,0,.4-.13s-.32-.1-.45-.07-.19.07-.19.13-.07.12-.15.13c.1.14.33,0,.54.07a1.09,1.09,0,0,0,.24.07.73.73,0,0,0,.24-.07c.13,0,.26,0,.4,0,.38-.05.76-.14,1.13-.2.2,0,0-.22.15-.07s.18-.17.19,0c.19,0,0,0,0,.2s.12.05.2.07-.19-.06-.1-.26H54c.09,0,0,.22.15.2s.33-.14.59-.07a.37.37,0,0,0,.29,0c.09,0,.13-.06.19-.07h.1c0,.08,0,0,.1,0s.18,0,.19.07-.3.19-.53.2c0,.09.1,0,.15.07s0,.12.1.13a2.73,2.73,0,0,1,1.27,0c-.1.13-.3.05-.44.07s0,.06,0,.07c-.27,0-.69,0-.88.2a.68.68,0,0,0-.59.09c0,.13.18.06.24.07h.3a1.55,1.55,0,0,1,.48-.07c.1,0,.13.06.19.07s0-.07.1-.07.06.06.05.07a1.64,1.64,0,0,1,1,0c0,.09-.12.05-.19.07s-.56,0-.88.07a2,2,0,0,1-.48.07s0-.11,0-.07-.35.08-.54.07a2.89,2.89,0,0,0-.83,0c-.11,0-.07.12-.15.13a5.91,5.91,0,0,1-1.33.07c-.1.09.09.27-.19.2.09.12.27.06.4.06.34,0,.82,0,1.22,0l.24-.06a4.93,4.93,0,0,1,1.33.06s0,.09.1.07,0-.08,0-.07.06.19.19.07,0-.06.05-.07.1-.12.25-.06.08.3.29.2c-.06.28-.56-.1-.74.13,0,.12.16,0,.19.13s-.15.08-.29.14a.1.1,0,0,0,0,.06c-.08,0-.1-.06-.19-.06s-.1.07-.2.06-.19-.07-.29-.06-.22.1-.34.13-.43,0-.64.06c0,0,0,.13-.1.13,0,.19.32-.08.24.2-.09,0-.09.19-.24.13s-.05-.19-.15-.2-.4-.28-.59-.06c0,0,0,.07,0,.06s-.21.11-.39.06,0,.29-.1.33c-.18-.14-.44-.06-.64-.13,0,0,0-.06,0-.07l-.15-.06c-.08,0-.14-.05-.19-.13-.17.1-.34.06-.54.13,0,0,0,.07,0,.06s-.16-.06-.24-.06-.12,0-.2.06a3.83,3.83,0,0,0-.58.07c.11.25.46.11.73.13s.4.1.59,0c0,.1-.15.07-.1.27-.11-.07-.23,0-.34,0s-.32,0-.45,0-.16.11-.24.13a1.4,1.4,0,0,1-.29,0s0,.11,0,.06a.13.13,0,0,0-.15,0,3.64,3.64,0,0,1-.93.06c-.13-.09.57-.07.19-.13-.17,0-.08-.06-.44,0l-.88.06c-.09,0-.15.11-.25.13-.67.17-1.46-.16-1.81,0,.08.13.2.06.3.06h.29a1.75,1.75,0,0,0,.79.06.48.48,0,0,1,.29,0,2,2,0,0,0,.59,0,11.57,11.57,0,0,1,1.86-.06,5.94,5.94,0,0,0,1,.06,4.3,4.3,0,0,0,.79-.26c.15,0,.21.08.34.13s.1,0,.1.06.16-.1.25-.13c.33.14.65-.06,1-.06,0,.18-.1.13-.1.26h.24c.11,0,.07-.12.15-.13.24,0,.47,0,.69-.07a1,1,0,0,1,.45-.06A.82.82,0,0,0,55,15c.08,0,.15-.13.25-.07-.08-.23-.25.08-.25-.26.25,0,.65.22.79-.07.21-.05,0,.13.1.13s.59,0,.88-.06c0,.11-.08.15-.19.13.09.13.24.06.34.06s0-.06,0-.06.1.12.25.06c-.13.32-.44.16-.69.2s-.42.1-.64.13c-.38,0-.8,0-1.08.2,0,.1.06,0,.15,0,.3,0,.4.06.64,0s.12.24.29.2.39.08.45-.06.1.13.19.13.27-.15.39,0c-.17.4-.58-.12-.88.06,0,0-.09.23-.24.2s-.23-.08-.34-.13a14.37,14.37,0,0,1-2.26.27c.14.18.37,0,.54,0,.56,0,1.15,0,1.67-.06,0,.15.15,0,.19.13,0,0-.07.09,0,.06s.22-.06.29-.06.17.08.24.06.34-.19.49-.2a.36.36,0,0,1,.34.13c.13-.09.25,0,.4-.06s.19-.12.29-.13a.17.17,0,0,1,.1,0s.12.11.15.06.14,0,.3-.06a1,1,0,0,1,.34-.06c.15,0,.27.16.44.13-.09.23-.46.12-.68.2a.69.69,0,0,0-.3.2h-.53c0-.06.18-.1.19-.06s-.37-.1-.59-.08H57c-.1,0-.08,0-.24,0s-.48-.05-.49.14-.09-.19-.24-.14-.25.15-.39.2-.07,0-.1,0-.05.07-.05.07-.24,0-.35,0-.2.12-.29.13-.16-.06-.24-.06-.22.07-.35.06.09-.1.1-.2c-.22,0-.4,0-.44.26-.06.05-.08-.06-.1-.06s0,.11-.19.13-.1,0-.16,0c-.05-.2.11-.12.2-.13-.08-.11-.17-.26.05-.26-.08-.14-.25-.07-.35-.07a4.5,4.5,0,0,0-.63.07s0-.07-.06-.07-.11.08-.19.07L52,16.36l-.3.07c-.14,0-.28,0-.44,0s-.87,0-1.27.07c-.1,0-.17.06-.25.06a1.87,1.87,0,0,0-.93.13c-.1,0-.19-.12-.29-.13s-.36.11-.64.06c-.09,0-.1-.06-.19-.06s-.12.06-.19.06-.1-.07-.19-.06-.46.2-.54.06-.11,0-.29,0c0-.18.14-.16.19-.26.63.2,1.31-.08,2,0-.07-.14-.21-.07-.29-.08-.27,0-.7,0-1,0-.08,0-.16-.07-.25-.06-.28,0-.53.16-.78.13,0,0-.25.1-.1.14s-.18,0-.25.06c0-.15.07-.12.15-.13s-.17,0-.29-.07-.38-.29-.64-.13c0,0,0,.2-.1.13,0-.27-.44-.07-.63-.13,0,.15.21,0,.24.13s-.29,0-.48.07a9.15,9.15,0,0,1-1.28.07c-.07,0-.18-.06-.24-.07s-.27,0-.4,0a5.08,5.08,0,0,0-1.17-.07.37.37,0,0,1-.29,0,10.46,10.46,0,0,0-1.12,0l-.93-.07c-.1,0-.16-.05-.25-.06-.5-.07-1,.06-1.57,0l-.78-.06c-.1,0-.17-.06-.25-.06-.29,0-.58,0-.88,0-.08,0-.15-.05-.24-.06-.31,0-.66,0-1,0-.09,0-.15,0-.24-.06-.57-.08-1.23.06-1.81,0-.1,0-.14-.06-.2-.06h-.1V16c-.06,0-.09-.07-.1-.06s-.18.12-.34.06L31,15.92S31,16,30.89,16a1.94,1.94,0,0,0-.59-.06s0,.06-.05.06-.05-.06-.05-.06-.05.06-.1.06c-.21,0-.44,0-.64,0a1,1,0,0,0-.34.06c-.08,0-.06,0-.25,0a.65.65,0,0,0-.34,0,.53.53,0,0,1-.39,0c-.12,0,0,0-.2,0s-.31,0-.48,0a1.05,1.05,0,0,1-.24.06,2.91,2.91,0,0,0-.59,0c.08.22.32.12.48.13a6.76,6.76,0,0,1,1.42.13c.07,0,.19,0,.19.06.11-.09.28-.11.4-.2.66,0,1.3,0,2,.06l.24.08c.47.06,1-.06,1.42,0,.09,0,.16.06.24.06a3,3,0,0,1,.74.07c.1,0,.09,0,.15.06h.05c.49.06,1,0,1.47.06,0-.17-.28.06-.2-.2.12,0,.28-.06.35.07s0,.05.05.06c.53.11,1.06-.18,1.62-.13.16-.06.1.17.19.2s.24.08.29,0a.55.55,0,0,1,.25-.13c.38-.06.8,0,1.22,0a.14.14,0,0,1-.15.13c.12.16.28.12.44.13s.34,0,.49,0a1.61,1.61,0,0,0,.44.06c.12,0,.22-.11.35-.13s.58-.08.63,0,0,0,.1,0a2,2,0,0,0,.83.06s.05-.06.1-.06.14.12.3.06.06-.06.05-.06.1.08.19.06.07-.07.15-.06,0,.09.19.13.21-.14.3,0a.63.63,0,0,0,.1-.2c.07,0,.14,0,.15-.06a5.79,5.79,0,0,0,.83-.06c0,.14-.09.09-.1.2s.18,0,.29.06a.8.8,0,0,0,.48.06.39.39,0,0,0-.29-.13c.15-.27.37,0,.64-.06,0,0,0-.06,0-.06h.05c.09,0,.16.12.24.13s.26-.06.4-.06.16.06.24.06.36,0,.54,0a6.4,6.4,0,0,0,.88.06c.14,0,.26-.06.39-.06s.25.06.39.06.25-.1.45-.06l.1.06c.1,0,.16-.12.24-.13h.25c.09,0,.14.07.19.06s.23-.07.34-.06c.28,0,.54.16.83.06.06,0,.08-.11.15-.13h.35s0-.06,0-.06.08.07.14.06.17-.07.24-.06.16.07.25.06.36-.18.53,0c0,.11-.07.1-.15.13s-.23,0-.45.06c0,0-.08.06-.15.06s-.3,0-.44,0a5.47,5.47,0,0,1-1.28.06c-.11,0-.07.13-.15.14a2.1,2.1,0,0,0-.79,0H49.4s-.12-.12-.15-.07,0,0,0,0a2,2,0,0,0-.49,0,2.38,2.38,0,0,0-.39.2,1.11,1.11,0,0,0-.84,0,2.63,2.63,0,0,0-.39.06c-.11,0-.21.17-.35.2a1.94,1.94,0,0,1-.68,0,.68.68,0,0,0-.4,0,2,2,0,0,1-.74.06,10.33,10.33,0,0,0-1.76-.06c0-.06,0-.06,0-.06s-.06-.05,0-.13-.21.05-.24,0v-.07c-.1,0-.12.08-.19.07s0-.07-.05-.07-.3-.06-.45-.07-.29.07-.44.07S41.22,16.9,41,17c-.08,0-.07.06-.19,0s-.1,0-.1,0-.06,0-.2,0h-.24c-.09,0-.2-.07-.29-.06a2.88,2.88,0,0,1-.83.06c-.07,0,0,.2-.1.2-.35.11-.46-.07-.83-.06,0-.09.09-.1.1-.2-1-.14-2.12-.07-3.14-.13a3.82,3.82,0,0,0-.68-.06c-.26,0-.47.18-.69.2,0-.08.09-.06.15-.07,0-.16-.53,0-.59-.2,0,0,.07-.09,0-.06-1.44.05-2.72-.29-4.06-.13,0,.24.35.09.53.13,0,.14-.17,0-.24.06s-.45-.1-.59.13c.06.13.22.06.3.06.27,0,.7,0,1,0,0,.18-.19.19-.24.2s-.2-.07-.3-.07c-.26,0-.52,0-.79,0a1.62,1.62,0,0,1-.44,0c-.23,0-.54,0-.83,0,.06.14.19,0,.29.07a1,1,0,0,0,.25.06,2.62,2.62,0,0,1,.48.13.76.76,0,0,0,.29-.13c.15,0,.16.15.3.13,0,.2-.12-.09-.25,0,0,.15.24.09.25.27h1c0,.1-.12.12-.19.13s-.06-.09-.1-.06,0,.06-.06.06h-.1l0-.06c-.08,0-.08.07-.15.06s-.19-.08-.29-.06-.32.11-.49.13-.12-.19-.24-.2c-.34.13-.86,0-1.12.26s0-.22-.15-.2c-.35.07-.78,0-1,.2-.11,0-.07-.12-.15-.13a1.08,1.08,0,0,0-.29.13c-.09.13-.14-.29-.19-.2s0,.06-.05,0c-.37.14-1,0-1.28.2-.11,0-.18,0-.19-.13a.87.87,0,0,1-.45.13c-.17.1,0-.22-.14-.2l-.24.06c-.15,0-.24,0-.49.07s-.39.18-.53-.07c-.11.11-.24,0-.4.07s-.16.07-.24.06-.21-.07-.34-.06-.18.05-.3.06-.26,0-.39,0a1.05,1.05,0,0,1-.24.06c-.14,0-.27-.13-.4-.13a2,2,0,0,0-.34.06c-.3,0-.63,0-.93,0a2.91,2.91,0,0,1-.88.07.86.86,0,0,0-.45,0,3.24,3.24,0,0,1-.88,0,1.88,1.88,0,0,0-.58,0c-.6.08-1.57,0-2.35.06l-.24.06c-.91.12-1.89-.1-2.79,0L10.3,18c-.33,0-.65,0-1,0a23.12,23.12,0,0,1-4.85.06c-.1,0-.15-.06-.24-.06s-.3,0-.45,0l-.44-.13a2,2,0,0,0-.59-.13h-.1a.53.53,0,0,0-.24-.06h-.1s-.05-.08-.05-.08c-.24,0-.47,0-.69-.06s-.19-.11-.3-.13-.41,0-.53-.06a1.77,1.77,0,0,0-.35-.26c0-.11.17-.49,0-.47,0-.15.16-.15.2-.26s-.13-.05-.2-.06-.08-.11-.15-.13c.06-.23.3-.2.54-.2-.11-.27-.47-.21-.54-.53-.15.08-.12-.1-.19-.13s0-.27.1-.33,0-.14,0-.27.34-.06.39-.26-.23,0-.19-.13,0-.14,0-.26S.19,14,.2,13.82a.58.58,0,0,1,.1-.33c0-.06.14-.09.15-.2s-.23-.17-.24-.39a1.87,1.87,0,0,1,.05-.53c.15-.09.22-.32.49-.26C.8,12,.67,12,.65,12s0-.2,0-.27a1.13,1.13,0,0,0-.1-.13c-.1-.11-.18-.11-.4-.2,0-.06.13-.1.05-.13s-.07-.11-.1-.2,0-.24,0-.33a.76.76,0,0,1,.15-.48,2.24,2.24,0,0,1-.05-.93c.07-.07.17-.05.19-.2s0-.17,0,.07a3.67,3.67,0,0,0,.4-.46c0-.09-.09-.07-.14-.08,0-.3-.16-.27-.25-.39S.5,7.9.5,7.7a1.78,1.78,0,0,0,0-.65c.16-.06.24-.23.4-.27s.24-.15.29-.33.42-.12.64-.2a.18.18,0,0,1,0-.07l.35-.07L2.38,6c.07-.11.23,0,.29-.07a.47.47,0,0,1,.67,0l0,0c.1,0,.14-.16.29-.13,0-.09-.12,0-.19-.07s.19-.09.19-.26-.15-.1-.24-.07-.45.2-.64.26-.19,0-.29.07-.39.18-.59.26l-.34.08c-.09,0-.17.13-.25.13A1.42,1.42,0,0,1,.77,6c0-.17,0-.33.1-.34s-.13,0-.05-.2.22,0,.34,0,0-.06.05-.07a1.63,1.63,0,0,0,.3-.07c.11,0,.22-.09.34-.13s.33,0,.45-.14A.52.52,0,0,1,2.45,5l.48-.13s0-.06.1-.07.24,0,.35,0l.29-.13c.06,0,.13,0,.19,0s.08-.06.16-.07a4.53,4.53,0,0,0,.73-.08s0-.06,0-.07a1,1,0,0,0,.35-.07s.09,0,.1,0,.41-.08.29-.33c.14.05.12-.09.24-.07-.17-.2-.41.08-.68,0,.05.09.13.13.19.2s-.13,0-.19,0-.15.12-.25.07c0-.22.19-.11.2-.26-.15-.07-.29.08-.45.08S4.5,4,4.41,4c-.38,0-.69.15-1.08.2-.08.1-.26,0-.25.26-.14,0-.13-.09-.24-.07s0,.26-.19.33-.14.11-.3.07-.06-.18-.15-.2-.28.1-.44.13,0,.32-.1.27-.28,0-.54,0c0-.24-.16-.31-.19-.53C1.07,4.37,1,4,1.22,4,1.15,3.82,1,3.74,1,3.4A.88.88,0,0,0,1.67,3c.27.15.6,0,.88-.06,0-.2-.13-.07-.24-.06A5.16,5.16,0,0,0,1.52,3c0-.22.2-.26.39-.27-.09-.14-.29-.12-.44-.2a.22.22,0,0,0-.1-.39c0-.06,0-.12.1-.13a1.43,1.43,0,0,0,.14-.2.52.52,0,0,0,.1-.26c.3-.1.64-.08,1-.2.15-.07.28-.23.44-.27S3.6,1,3.82,1s.35,0,.59-.06.32-.17.48-.2.19,0,.3,0,.35-.1.63-.13a.77.77,0,0,0,.4,0c.06,0,.1-.08.2-.08s.39.14.58.14c0-.1-.11-.05-.18-.08.09-.11.32-.07.48-.07a1.92,1.92,0,0,1,.48.07c0-.06-.13-.07-.14-.07.05-.2.41,0,.53.07C8.72.43,9.28.53,9.79.42c.05,0,.1,0,.14,0a.5.5,0,0,1,.29-.07s0,.07.06.07.27-.13.44-.07c-.12-.15-.43,0-.64-.07,0-.19.24,0,.19-.13.51,0,1,0,1.52,0A.61.61,0,0,1,12,.22c1.16.15,2.43-.1,3.64,0a.33.33,0,0,1,.14,0s0,.06.1.07.15-.07.24-.07A7.74,7.74,0,0,0,17,.29c.1,0,.12,0,.19-.07s0,.08.1.07,0-.06.05-.07a2.29,2.29,0,0,1,.64,0c.07,0,.09.07.14.07s.27-.13.49-.07c0,0,.05.06.1.07s.16-.06.24-.07c.78-.09,1.64.08,2.4,0,.13,0,.21-.06.34-.06a5.94,5.94,0,0,0,1,.06A11,11,0,0,1,24.51.16a3,3,0,0,0,.74.06A2,2,0,0,1,26,.16s.09,0,.1,0,.09,0,.24,0,.54,0,.83,0c.1,0,.19-.06.29-.07a2.34,2.34,0,0,1,.45.07c.13,0,.26,0,.39,0l.74.06a1,1,0,0,0,.48,0A9.14,9.14,0,0,1,31.36.16c.16,0,.06-.23.25-.13.12-.1.12.1.19.13.34.12.77-.07,1.08.06,0,.15-.2,0-.29.07s.2,0,.29.06-.05-.18.15-.2.62-.06.93,0c.11,0,.19.12.3.13.3,0,.61,0,.93,0l.24.07c.44.05.9,0,1.32.07.12,0,.23.08.35.08a6,6,0,0,1,1-.08c0,.08.09.06.15.07s0,.06.05.07c.21-.05,0,.13.1.13s.18.1.34.08c0-.1-.12-.06-.19-.08.1-.19.27-.12.45-.13a5.1,5.1,0,0,1,1,.07c.09,0,.14.08.19.08s.1-.08.19-.08L40.7.7a4.37,4.37,0,0,1,.88.08c.07,0,.06,0,.1.07s0,.08,0,.06c.21,0,.51.06.64-.06s.07.07.22.11.18,0,.34-.07c0,0,0,.07,0,.07s0-.13.1-.13a5.82,5.82,0,0,1,1.18,0c.14,0,.26.12.39.13s.45-.1.64-.07.23.18.39.13c0,.19-.21.13-.35.14" style="fill:#dd489d"/><path d="M18.49,15.19a.62.62,0,0,0,.21.55H15.19a.6.6,0,0,0,.08-.69l-2-5.6V15.2a.61.61,0,0,0,.21.55H9.73c.14-.08.21-.23.21-.55V2.67c0-.32-.08-.48-.21-.56h3.51a.64.64,0,0,0-.08.71l2.05,5.62V2.67A.63.63,0,0,0,15,2.11h3.71c-.12.08-.21.23-.21.56V15.19Z" style="fill:#fff"/><path d="M23,4.81V7.42H25.1a.51.51,0,0,0,.48-.23V10.3a.47.47,0,0,0-.48-.23H23v2.8h2.53a.48.48,0,0,0,.47-.24v3.12H19.27c.14-.08.21-.23.21-.56V2.67c0-.32-.08-.48-.21-.56H26V5.05a.44.44,0,0,0-.45-.23H23Z" style="fill:#fff"/><path d="M40.55,2.11a2.1,2.1,0,0,0-.69,1.52L38.34,15c0,.42,0,.63.13.75h-4.3c.14-.12.18-.33.12-.73L33.41,8.7l-1,6.29c-.06.42,0,.63.12.75H28.31c.14-.12.18-.33.12-.73L26.93,3.63a2.14,2.14,0,0,0-.69-1.52h4.17c-.18.1-.31.27-.27.75l.7,7.85L32,2.86c.06-.47-.06-.65-.24-.75h3.34c-.18.1-.31.28-.23.75L36,10.71l.71-7.85c0-.47-.1-.65-.27-.75Z" style="fill:#fff"/></svg>