<svg xmlns="http://www.w3.org/2000/svg" viewBox="0 0 120 25"  xmlns:v="https://vecta.io/nano" fill="#fff"><path d="M115.3 17.1c-2 0-3.6 1.7-3.6 3.7s1.7 3.6 3.7 3.6 3.6-1.6 3.6-3.6c-.1-2.1-1.7-3.7-3.7-3.7zm-24-15.7c.1.2.1.3.1.5v15c.1.6-.1 1.3-.4 1.8-.6.7-1.6.8-2.2.2-.1-.1-.2-.1-.2-.2-.3-.6-.5-1.2-.4-1.8v-15c0-.2 0-.4.1-.5.1-.2.2-.3.3-.4H81c.2.1.3.2.3.4.1.2.1.3.1.5v15.3c0 4.1 2.5 7.3 8.2 7.3h.3c5.6 0 8.2-3.3 8.2-7.3V1.9c0-.2 0-.4.1-.5.1-.2.2-.3.3-.4H91c.1.1.3.2.3.4h0zM80.6 18.7c-.2.1-.3.1-.5.1h-3.9V1.9c0-.2 0-.3.1-.5s.2-.3.3-.4h-7.5c.2.1.3.2.3.4 0 .1.1.3.1.4V23c0 .2 0 .3-.1.5s-.2.3-.3.4H81v-5.6c-.1.2-.2.4-.4.4h0zm29 4.9c-.1-.2-.1-.3-.1-.5V6.2h2.9c.2 0 .4 0 .5.1.2.1.3.2.4.3V1H99v5.6c.1-.2.3-.3.4-.3.2-.1.3-.1.5-.1h2.9v17c0 .1 0 .3-.1.4-.1.2-.2.3-.3.4h7.5c-.1-.1-.2-.3-.3-.4zM59.5.5h0c-6 0-8.8 4.5-8.9 11.7h0v.6c.1 7.2 2.9 11.7 8.9 11.7h0c6 0 8.8-4.5 8.9-11.7h0v-.6C68.3 5 65.5.6 59.5.5h0zm2 12.3c0 3.1-.1 6.5-2 6.6-1.9-.1-2-3.4-2-6.6v-.6c0-3.1.1-6.6 2-6.6 1.9.1 2 3.5 2 6.6v.6zM116.8 5c1.3 0 2.2-1.1 2.2-2.3S117.9.5 116.7.5s-2.2 1-2.2 2.3c0 1.2 1.1 2.3 2.3 2.2h0zm0-4.3c1.1 0 2 1 2 2.1s-1 2-2.1 2-2-.9-2-2c.1-1.2 1-2.1 2.1-2.1h0zm-.5 2.2h.6l.7 1.1h.4l-.7-1.1c.4 0 .7-.4.6-.7 0-.5-.3-.7-1-.7h-1V4h.4V2.9zm0-1.1h.6c.3 0 .6 0 .6.4s-.3.4-.6.4h-.6v-.8zM30.5 12.1h0c2.2-.1 4.2-2.3 4.1-5.2-.1-4.1-3.2-5.9-8.5-5.9H19c.2.1.3.2.3.4.1.4.1.8.1 1.2v19.8c.1.5 0 1.1-.2 1.6h8.4c5.3 0 7.9-2.5 7.9-6.4.2-2.9-2.1-5.3-5-5.5h0zM26 5.7h.4c1.3 0 2.5.7 2.4 2.3 0 1.2-1 2.2-2.2 2.2H26V5.7zm.4 13.6H26v-5h.4c1.8 0 2.8.9 2.8 2.4 0 1.9-1.2 2.6-2.8 2.6h0zm-8.2 2.1L13.7 2.1c-.2-.4-.1-.8.3-1.1H5.5c.3.3.4.7.3 1.1-.1.5-4.6 19.3-4.6 19.3C.7 23.8 0 24 0 24h7.7c-.4-.2-.6-.6-.4-1 .1-.8.4-2.7.4-2.7h3.9L12 23c.1.4-.1.8-.4 1H19s-.3-.2-.8-2.6h0zM8.4 16l1.3-9.1L11 16H8.4zm39.8-3.6c-1.3-1.3-2.6-2.4-4.1-3.5-1.2-.9-1.8-1.5-1.5-2.4.6-1.8 3.9-.6 6 .8v-6c-.3.3-.7.4-1 .2-1.3-.6-2.7-.9-4.1-.9-4.6 0-7.2 3.3-7.2 6.5-.1 2.2.8 4.3 2.5 5.6 1.4 1.2 3 2.4 4 3.3.8.6 1.1 1.5.8 2.4-.6 1.4-3.3 1.3-7.3-2v6.8c.3-.3.8-.3 1.2-.1 1.5.8 3.3 1.3 5 1.4 5.4.1 8.2-3.4 7.8-7.7-.2-1.6-.9-3.2-2.1-4.4h0z"/></svg>
