<svg width="26" height="26" viewBox="0 0 26 26" fill="none" xmlns="http://www.w3.org/2000/svg">
<path d="M12.75 17.75C15.5114 17.75 17.75 15.5114 17.75 12.75C17.75 9.98858 15.5114 7.75 12.75 7.75C9.98858 7.75 7.75 9.98858 7.75 12.75C7.75 15.5114 9.98858 17.75 12.75 17.75Z" stroke="black" stroke-width="1.5" stroke-linecap="round" stroke-linejoin="round"/>
<path d="M18.75 0.75H6.75C3.43629 0.75 0.75 3.43629 0.75 6.75V18.75C0.75 22.0637 3.43629 24.75 6.75 24.75H18.75C22.0637 24.75 24.75 22.0637 24.75 18.75V6.75C24.75 3.43629 22.0637 0.75 18.75 0.75Z" stroke="black" stroke-width="1.5" stroke-linecap="round" stroke-linejoin="round"/>
<path d="M19.25 7.5C19.9404 7.5 20.5 6.94036 20.5 6.25C20.5 5.55964 19.9404 5 19.25 5C18.5596 5 18 5.55964 18 6.25C18 6.94036 18.5596 7.5 19.25 7.5Z" fill="black"/>
</svg>
