<svg width="24" height="24" viewBox="0 0 24 24" fill="none" xmlns="http://www.w3.org/2000/svg">
<path d="M23.5 11.75C23.5 11.9489 23.421 12.1397 23.2803 12.2803C23.1397 12.421 22.9489 12.5 22.75 12.5H12.5V22.75C12.5 22.9489 12.421 23.1397 12.2803 23.2803C12.1397 23.421 11.9489 23.5 11.75 23.5C11.5511 23.5 11.3603 23.421 11.2197 23.2803C11.079 23.1397 11 22.9489 11 22.75V12.5H0.75C0.551088 12.5 0.360322 12.421 0.21967 12.2803C0.0790175 12.1397 0 11.9489 0 11.75C0 11.5511 0.0790175 11.3603 0.21967 11.2197C0.360322 11.079 0.551088 11 0.75 11H11V0.75C11 0.551088 11.079 0.360322 11.2197 0.21967C11.3603 0.0790175 11.5511 0 11.75 0C11.9489 0 12.1397 0.0790175 12.2803 0.21967C12.421 0.360322 12.5 0.551088 12.5 0.75V11H22.75C22.9489 11 23.1397 11.079 23.2803 11.2197C23.421 11.3603 23.5 11.5511 23.5 11.75Z" fill="black"/>
</svg>
